# xmcd
#
# Track frame offsets: 
#        182
#        16205
#        26712
#        46140
#        67930
#        83527
#        96132
#        105787
#        115050
#        132875
#        149442
#
# Disc length: 2338 seconds
#
# Revision: 1
# Processed by: cddbd v1.5.2PL0 Copyright (c) Steve Scherf et al.
# Submitted via: ExactAudioCopy v0.99pb5
#
DISCID=7d09200b
DTITLE=Nirvana - Smells Like Nirvana
DYEAR=1900
DGENRE=
TTITLE0=School
TTITLE1=Floyd The Barber
TTITLE2=Drain You
TTITLE3=Smells Like Teen Spirit
TTITLE4=Come As You Are
TTITLE5=Breed
TTITLE6=Sliver
TTITLE7=Molly's Lips
TTITLE8=Love Buzz
TTITLE9=Negative Creep
TTITLE10=The End - Blew
EXTD=
EXTT0=
EXTT1=
EXTT2=
EXTT3=
EXTT4=
EXTT5=
EXTT6=
EXTT7=
EXTT8=
EXTT9=
EXTT10=
PLAYORDER=
